Here's the PREAiR version of the highly anticipated episode of House.

Check it out / rate it -&gt;

Like it -&gt; visit my facebook page!

Search : Soupucia Vault


-----------------------------------------------------

Format                           : AVI
Format/Info                      : Audio Video Interleave
File size                        : 353 MiB
Duration                         : 44mn 36s
Overall bit rate                 : 1 107 Kbps

Video
ID                               : 0
Format                           : MPEG-4 Visual
Format profile                   : Advanced Simple@L5
Format settings, BVOP            : 2
Format settings, QPel            : No
Format settings, GMC             : No warppoints
Format settings, Matrix          : Default (H.263)
Codec ID                         : XVID
Codec ID/Hint                    : XviD
Duration                         : 44mn 36s
Bit rate                         : 769 Kbps
Width                            : 720 pixels
Height                           : 408 pixels
Display aspect ratio             : 16:9
Frame rate                       : 29.970 fps
Color space                      : YUV
Chroma subsampling               : 4:2:0
Bit depth                        : 8 bits
Scan type                        : Progressive
Compression mode                 : Lossy
Bits/(Pixel*Frame)               : 0.087
Stream size                      : 245 MiB (69%)
Writing library                  : XviD 1.2.1 (UTC 2008-12-04)

Audio
ID                               : 1
Format                           : MPEG Audio
Format version                   : Version 1
Format profile                   : Layer 3
Mode                             : Joint stereo
Mode extension                   : MS Stereo
Codec ID                         : 55
Codec ID/Hint                    : MP3
Duration                         : 44mn 36s
Bit rate mode                    : Constant
Bit rate                         : 320 Kbps
Channel(s)                       : 2 channels
Sampling rate                    : 44.1 KHz
Compression mode                 : Lossy
Delay relative to video          : 12ms
Stream size                      : 102 MiB (29%)
Alignment                        : Aligned on interleaves
Interleave, duration             : 26 ms (0.78 video frame)
Writing library                  : LAME3.98

